<svg width="249" height="258" viewBox="0 0 249 258" fill="none" xmlns="http://www.w3.org/2000/svg">
<g filter="url(#filter0_d)">
<rect x="23" y="91.7641" width="137" height="10" rx="5" transform="rotate(-42.0525 23 91.7641)" fill="#4FB7D4"/>
<rect x="220.916" y="98.9401" width="137" height="10" rx="5" transform="rotate(-138.696 220.916 98.9401)" fill="#4FB7D4"/>
</g>
<g filter="url(#filter1_d)">
<rect x="97" y="50" width="56" height="124" rx="15" fill="#4FB7D4"/>
<rect x="63" y="140" width="56" height="124" rx="15" transform="rotate(-90 63 140)" fill="#4FB7D4"/>
</g>
<path d="M31.168 203.164C33.016 203.164 34.684 203.608 36.172 204.496C37.684 205.36 38.872 206.56 39.736 208.096C40.624 209.608 41.068 211.3 41.068 213.172V221.2C41.068 221.728 40.888 222.172 40.528 222.532C40.192 222.868 39.76 223.036 39.232 223.036C38.704 223.036 38.26 222.868 37.9 222.532C37.564 222.172 37.396 221.728 37.396 221.2V219.868C36.556 220.9 35.536 221.704 34.336 222.28C33.136 222.856 31.84 223.144 30.448 223.144C28.72 223.144 27.148 222.712 25.732 221.848C24.34 220.984 23.236 219.796 22.42 218.284C21.628 216.748 21.232 215.044 21.232 213.172C21.232 211.3 21.664 209.608 22.528 208.096C23.392 206.56 24.58 205.36 26.092 204.496C27.628 203.608 29.32 203.164 31.168 203.164ZM31.168 219.904C32.368 219.904 33.448 219.616 34.408 219.04C35.392 218.44 36.16 217.636 36.712 216.628C37.264 215.596 37.54 214.444 37.54 213.172C37.54 211.9 37.264 210.748 36.712 209.716C36.16 208.684 35.392 207.88 34.408 207.304C33.448 206.704 32.368 206.404 31.168 206.404C29.968 206.404 28.876 206.704 27.892 207.304C26.932 207.88 26.164 208.684 25.588 209.716C25.036 210.748 24.76 211.9 24.76 213.172C24.76 214.444 25.036 215.596 25.588 216.628C26.164 217.636 26.932 218.44 27.892 219.04C28.876 219.616 29.968 219.904 31.168 219.904ZM41.493 231.424C40.965 231.424 40.533 231.244 40.197 230.884C39.861 230.548 39.693 230.116 39.693 229.588C39.693 229.06 39.861 228.616 40.197 228.256C40.533 227.92 40.965 227.752 41.493 227.752C42.909 227.752 44.073 227.296 44.985 226.384C45.897 225.496 46.353 224.344 46.353 222.928V205.144C46.353 204.592 46.521 204.148 46.857 203.812C47.217 203.476 47.661 203.308 48.189 203.308C48.741 203.308 49.185 203.476 49.521 203.812C49.857 204.148 50.025 204.592 50.025 205.144V222.928C50.025 224.56 49.665 226.024 48.945 227.32C48.225 228.616 47.217 229.624 45.921 230.344C44.625 231.064 43.149 231.424 41.493 231.424ZM48.189 200.104C47.541 200.104 46.977 199.876 46.497 199.42C46.041 198.94 45.813 198.376 45.813 197.728C45.813 197.08 46.041 196.528 46.497 196.072C46.977 195.592 47.541 195.352 48.189 195.352C48.837 195.352 49.389 195.592 49.845 196.072C50.325 196.528 50.565 197.08 50.565 197.728C50.565 198.376 50.325 198.94 49.845 199.42C49.389 199.876 48.837 200.104 48.189 200.104ZM73.1049 203.272C73.6569 203.272 74.1009 203.44 74.4369 203.776C74.7729 204.112 74.9409 204.556 74.9409 205.108V221.164C74.9409 221.692 74.7729 222.136 74.4369 222.496C74.1009 222.832 73.6569 223 73.1049 223C72.5769 223 72.1329 222.832 71.7729 222.496C71.4369 222.136 71.2689 221.692 71.2689 221.164V220.768C70.5009 221.536 69.5889 222.136 68.5329 222.568C67.4769 222.976 66.3489 223.18 65.1489 223.18C63.4929 223.18 62.0049 222.82 60.6849 222.1C59.3649 221.38 58.3329 220.336 57.5889 218.968C56.8449 217.576 56.4729 215.908 56.4729 213.964V205.108C56.4729 204.58 56.6409 204.148 56.9769 203.812C57.3369 203.452 57.7809 203.272 58.3089 203.272C58.8369 203.272 59.2689 203.452 59.6049 203.812C59.9649 204.148 60.1449 204.58 60.1449 205.108V213.964C60.1449 215.908 60.6609 217.384 61.6929 218.392C62.7489 219.376 64.1409 219.868 65.8689 219.868C66.8769 219.868 67.7889 219.664 68.6049 219.256C69.4449 218.848 70.0929 218.296 70.5489 217.6C71.0289 216.904 71.2689 216.124 71.2689 215.26V205.108C71.2689 204.556 71.4369 204.112 71.7729 203.776C72.1329 203.44 72.5769 203.272 73.1049 203.272ZM98.4 194.884C98.952 194.884 99.396 195.052 99.732 195.388C100.068 195.724 100.236 196.168 100.236 196.72V213.136C100.236 215.008 99.792 216.712 98.904 218.248C98.04 219.76 96.852 220.96 95.34 221.848C93.852 222.712 92.184 223.144 90.336 223.144C88.488 223.144 86.796 222.712 85.26 221.848C83.748 220.96 82.56 219.76 81.696 218.248C80.832 216.712 80.4 215.008 80.4 213.136C80.4 211.264 80.796 209.572 81.588 208.06C82.404 206.524 83.508 205.324 84.9 204.46C86.316 203.596 87.888 203.164 89.616 203.164C91.008 203.164 92.304 203.452 93.504 204.028C94.704 204.604 95.724 205.408 96.564 206.44V196.72C96.564 196.168 96.732 195.724 97.068 195.388C97.428 195.052 97.872 194.884 98.4 194.884ZM90.336 219.904C91.536 219.904 92.616 219.616 93.576 219.04C94.56 218.44 95.328 217.624 95.88 216.592C96.432 215.56 96.708 214.408 96.708 213.136C96.708 211.864 96.432 210.724 95.88 209.716C95.328 208.684 94.56 207.88 93.576 207.304C92.616 206.704 91.536 206.404 90.336 206.404C89.136 206.404 88.044 206.704 87.06 207.304C86.1 207.88 85.332 208.684 84.756 209.716C84.204 210.724 83.928 211.864 83.928 213.136C83.928 214.408 84.204 215.56 84.756 216.592C85.332 217.624 86.1 218.44 87.06 219.04C88.044 219.616 89.136 219.904 90.336 219.904ZM115.648 203.164C117.496 203.164 119.164 203.608 120.652 204.496C122.164 205.36 123.352 206.56 124.216 208.096C125.104 209.608 125.548 211.3 125.548 213.172V221.2C125.548 221.728 125.368 222.172 125.008 222.532C124.672 222.868 124.24 223.036 123.712 223.036C123.184 223.036 122.74 222.868 122.38 222.532C122.044 222.172 121.876 221.728 121.876 221.2V219.868C121.036 220.9 120.016 221.704 118.816 222.28C117.616 222.856 116.32 223.144 114.928 223.144C113.2 223.144 111.628 222.712 110.212 221.848C108.82 220.984 107.716 219.796 106.9 218.284C106.108 216.748 105.712 215.044 105.712 213.172C105.712 211.3 106.144 209.608 107.008 208.096C107.872 206.56 109.06 205.36 110.572 204.496C112.108 203.608 113.8 203.164 115.648 203.164ZM115.648 219.904C116.848 219.904 117.928 219.616 118.888 219.04C119.872 218.44 120.64 217.636 121.192 216.628C121.744 215.596 122.02 214.444 122.02 213.172C122.02 211.9 121.744 210.748 121.192 209.716C120.64 208.684 119.872 207.88 118.888 207.304C117.928 206.704 116.848 206.404 115.648 206.404C114.448 206.404 113.356 206.704 112.372 207.304C111.412 207.88 110.644 208.684 110.068 209.716C109.516 210.748 109.24 211.9 109.24 213.172C109.24 214.444 109.516 215.596 110.068 216.628C110.644 217.636 111.412 218.44 112.372 219.04C113.356 219.616 114.448 219.904 115.648 219.904ZM150.848 223.36C148.52 223.36 146.396 222.832 144.476 221.776C142.58 220.72 141.272 219.34 140.552 217.636C140.432 217.348 140.372 217.108 140.372 216.916C140.372 216.556 140.504 216.244 140.768 215.98C141.032 215.692 141.392 215.5 141.848 215.404C141.92 215.38 142.04 215.368 142.208 215.368C142.592 215.368 142.952 215.488 143.288 215.728C143.648 215.944 143.912 216.244 144.08 216.628C144.512 217.564 145.364 218.356 146.636 219.004C147.908 219.652 149.312 219.976 150.848 219.976C152.648 219.976 154.172 219.568 155.42 218.752C156.668 217.912 157.292 216.772 157.292 215.332C157.292 213.964 156.764 212.8 155.708 211.84C154.652 210.856 153.044 210.256 150.884 210.04C147.908 209.752 145.568 208.888 143.864 207.448C142.16 205.984 141.308 204.16 141.308 201.976C141.308 200.44 141.74 199.12 142.604 198.016C143.492 196.888 144.692 196.036 146.204 195.46C147.74 194.86 149.456 194.56 151.352 194.56C153.416 194.56 155.156 194.98 156.572 195.82C157.988 196.66 159.188 197.86 160.172 199.42C160.46 199.876 160.604 200.308 160.604 200.716C160.604 201.244 160.364 201.676 159.884 202.012C159.62 202.18 159.308 202.264 158.948 202.264C158.588 202.264 158.252 202.18 157.94 202.012C157.628 201.82 157.388 201.568 157.22 201.256C156.572 200.176 155.756 199.36 154.772 198.808C153.812 198.232 152.588 197.944 151.1 197.944C149.276 197.944 147.8 198.304 146.672 199.024C145.544 199.72 144.98 200.74 144.98 202.084C144.98 203.332 145.484 204.376 146.492 205.216C147.5 206.056 149.3 206.608 151.892 206.872C154.772 207.16 157.004 208.036 158.588 209.5C160.172 210.94 160.964 212.848 160.964 215.224C160.964 216.952 160.496 218.44 159.56 219.688C158.624 220.912 157.376 221.836 155.816 222.46C154.28 223.06 152.624 223.36 150.848 223.36ZM178.477 223.576C176.197 223.576 174.157 223.156 172.357 222.316C170.581 221.452 169.189 220.264 168.181 218.752C167.197 217.24 166.705 215.512 166.705 213.568V196.756C166.705 196.204 166.885 195.76 167.245 195.424C167.605 195.064 168.049 194.884 168.577 194.884C169.129 194.884 169.573 195.064 169.909 195.424C170.269 195.76 170.449 196.204 170.449 196.756V213.568C170.449 214.84 170.785 215.98 171.457 216.988C172.153 217.996 173.101 218.788 174.301 219.364C175.525 219.916 176.917 220.192 178.477 220.192C179.965 220.192 181.297 219.916 182.473 219.364C183.649 218.788 184.561 217.996 185.209 216.988C185.881 215.98 186.217 214.84 186.217 213.568V196.756C186.217 196.204 186.397 195.76 186.757 195.424C187.117 195.064 187.561 194.884 188.089 194.884C188.617 194.884 189.049 195.064 189.385 195.424C189.745 195.76 189.925 196.204 189.925 196.756V213.568C189.925 215.488 189.433 217.216 188.449 218.752C187.489 220.264 186.133 221.452 184.381 222.316C182.653 223.156 180.685 223.576 178.477 223.576ZM206.044 223.36C203.716 223.36 201.592 222.832 199.672 221.776C197.776 220.72 196.468 219.34 195.748 217.636C195.628 217.348 195.568 217.108 195.568 216.916C195.568 216.556 195.7 216.244 195.964 215.98C196.228 215.692 196.588 215.5 197.044 215.404C197.116 215.38 197.236 215.368 197.404 215.368C197.788 215.368 198.148 215.488 198.484 215.728C198.844 215.944 199.108 216.244 199.276 216.628C199.708 217.564 200.56 218.356 201.832 219.004C203.104 219.652 204.508 219.976 206.044 219.976C207.844 219.976 209.368 219.568 210.616 218.752C211.864 217.912 212.488 216.772 212.488 215.332C212.488 213.964 211.96 212.8 210.904 211.84C209.848 210.856 208.24 210.256 206.08 210.04C203.104 209.752 200.764 208.888 199.06 207.448C197.356 205.984 196.504 204.16 196.504 201.976C196.504 200.44 196.936 199.12 197.8 198.016C198.688 196.888 199.888 196.036 201.4 195.46C202.936 194.86 204.652 194.56 206.548 194.56C208.612 194.56 210.352 194.98 211.768 195.82C213.184 196.66 214.384 197.86 215.368 199.42C215.656 199.876 215.8 200.308 215.8 200.716C215.8 201.244 215.56 201.676 215.08 202.012C214.816 202.18 214.504 202.264 214.144 202.264C213.784 202.264 213.448 202.18 213.136 202.012C212.824 201.82 212.584 201.568 212.416 201.256C211.768 200.176 210.952 199.36 209.968 198.808C209.008 198.232 207.784 197.944 206.296 197.944C204.472 197.944 202.996 198.304 201.868 199.024C200.74 199.72 200.176 200.74 200.176 202.084C200.176 203.332 200.68 204.376 201.688 205.216C202.696 206.056 204.496 206.608 207.088 206.872C209.968 207.16 212.2 208.036 213.784 209.5C215.368 210.94 216.16 212.848 216.16 215.224C216.16 216.952 215.692 218.44 214.756 219.688C213.82 220.912 212.572 221.836 211.012 222.46C209.476 223.06 207.82 223.36 206.044 223.36Z" fill="#4FB7D4"/>
<path d="M3.12 252C2.912 252 2.736 251.936 2.592 251.808C2.464 251.664 2.4 251.488 2.4 251.28V233.976C2.4 233.768 2.464 233.6 2.592 233.472C2.736 233.328 2.912 233.256 3.12 233.256H14.664C14.856 233.256 15.024 233.328 15.168 233.472C15.312 233.6 15.384 233.768 15.384 233.976C15.384 234.168 15.312 234.336 15.168 234.48C15.024 234.624 14.856 234.696 14.664 234.696H3.84V241.896H11.784C11.992 241.896 12.16 241.968 12.288 242.112C12.432 242.24 12.504 242.408 12.504 242.616C12.504 242.824 12.432 243 12.288 243.144C12.16 243.288 11.992 243.36 11.784 243.36H3.84V250.56H14.664C14.856 250.56 15.024 250.632 15.168 250.776C15.312 250.92 15.384 251.088 15.384 251.28C15.384 251.488 15.312 251.664 15.168 251.808C15.024 251.936 14.856 252 14.664 252H3.12ZM24.6131 238.704C25.7811 238.704 26.8211 238.944 27.7331 239.424C28.6611 239.904 29.3811 240.608 29.8931 241.536C30.4211 242.448 30.6851 243.544 30.6851 244.824V251.28C30.6851 251.488 30.6131 251.664 30.4691 251.808C30.3411 251.936 30.1731 252 29.9651 252C29.7571 252 29.5811 251.936 29.4371 251.808C29.3091 251.664 29.2451 251.488 29.2451 251.28V244.824C29.2451 243.304 28.8131 242.144 27.9491 241.344C27.1011 240.544 25.9891 240.144 24.6131 240.144C23.7651 240.144 22.9891 240.312 22.2851 240.648C21.5971 240.968 21.0531 241.424 20.6531 242.016C20.2531 242.592 20.0531 243.232 20.0531 243.936V251.28C20.0531 251.488 19.9891 251.664 19.8611 251.808C19.7331 251.936 19.5571 252 19.3331 252C19.1251 252 18.9491 251.936 18.8051 251.808C18.6771 251.664 18.6131 251.488 18.6131 251.28V239.592C18.6131 239.368 18.6771 239.192 18.8051 239.064C18.9491 238.936 19.1251 238.872 19.3331 238.872C19.5571 238.872 19.7331 238.936 19.8611 239.064C19.9891 239.192 20.0531 239.368 20.0531 239.592V240.84C20.5971 240.168 21.2611 239.648 22.0451 239.28C22.8291 238.896 23.6851 238.704 24.6131 238.704ZM40.5696 252.144C39.3376 252.144 38.2256 251.856 37.2336 251.28C36.2416 250.688 35.4576 249.88 34.8816 248.856C34.3216 247.832 34.0416 246.696 34.0416 245.448C34.0416 244.184 34.3056 243.048 34.8336 242.04C35.3616 241.016 36.0976 240.216 37.0416 239.64C37.9856 239.048 39.0416 238.752 40.2096 238.752C41.2336 238.752 42.1696 238.952 43.0176 239.352C43.8656 239.752 44.6016 240.344 45.2256 241.128C45.3376 241.288 45.3936 241.424 45.3936 241.536C45.3936 241.76 45.2816 241.936 45.0576 242.064C44.9456 242.16 44.8176 242.208 44.6736 242.208C44.4496 242.208 44.2656 242.112 44.1216 241.92C43.0976 240.704 41.7936 240.096 40.2096 240.096C39.2816 240.096 38.4576 240.328 37.7376 240.792C37.0176 241.24 36.4576 241.872 36.0576 242.688C35.6736 243.504 35.4816 244.424 35.4816 245.448C35.4816 246.456 35.6976 247.368 36.1296 248.184C36.5616 249 37.1616 249.64 37.9296 250.104C38.6976 250.568 39.5776 250.8 40.5696 250.8C41.9776 250.8 43.1056 250.408 43.9536 249.624C44.0976 249.48 44.2656 249.408 44.4576 249.408C44.6336 249.408 44.7776 249.464 44.8896 249.576C45.0496 249.72 45.1296 249.896 45.1296 250.104C45.1296 250.28 45.0656 250.424 44.9376 250.536C44.3776 251.048 43.7216 251.448 42.9696 251.736C42.2176 252.008 41.4176 252.144 40.5696 252.144ZM54.9881 252.144C53.7241 252.144 52.5801 251.856 51.5561 251.28C50.5321 250.688 49.7241 249.88 49.1321 248.856C48.5561 247.832 48.2681 246.696 48.2681 245.448C48.2681 244.184 48.5561 243.04 49.1321 242.016C49.7241 240.992 50.5321 240.192 51.5561 239.616C52.5801 239.024 53.7241 238.728 54.9881 238.728C56.2361 238.728 57.3721 239.024 58.3961 239.616C59.4201 240.192 60.2201 240.992 60.7961 242.016C61.3881 243.04 61.6841 244.184 61.6841 245.448C61.6841 246.696 61.3881 247.832 60.7961 248.856C60.2201 249.88 59.4201 250.688 58.3961 251.28C57.3721 251.856 56.2361 252.144 54.9881 252.144ZM54.9881 250.8C55.9801 250.8 56.8761 250.568 57.6761 250.104C58.4761 249.64 59.1001 249 59.5481 248.184C60.0121 247.368 60.2441 246.456 60.2441 245.448C60.2441 244.44 60.0121 243.528 59.5481 242.712C59.1001 241.896 58.4761 241.256 57.6761 240.792C56.8761 240.312 55.9801 240.072 54.9881 240.072C53.9961 240.072 53.1001 240.312 52.3001 240.792C51.5001 241.256 50.8681 241.896 50.4041 242.712C49.9401 243.528 49.7081 244.44 49.7081 245.448C49.7081 246.456 49.9401 247.368 50.4041 248.184C50.8681 249 51.5001 249.64 52.3001 250.104C53.1001 250.568 53.9961 250.8 54.9881 250.8ZM71.2772 238.704C72.4452 238.704 73.4852 238.944 74.3972 239.424C75.3252 239.904 76.0452 240.608 76.5572 241.536C77.0852 242.448 77.3492 243.544 77.3492 244.824V251.28C77.3492 251.488 77.2772 251.664 77.1332 251.808C77.0052 251.936 76.8372 252 76.6292 252C76.4212 252 76.2452 251.936 76.1012 251.808C75.9732 251.664 75.9092 251.488 75.9092 251.28V244.824C75.9092 243.304 75.4772 242.144 74.6132 241.344C73.7652 240.544 72.6532 240.144 71.2772 240.144C70.4292 240.144 69.6532 240.312 68.9492 240.648C68.2612 240.968 67.7172 241.424 67.3172 242.016C66.9172 242.592 66.7172 243.232 66.7172 243.936V251.28C66.7172 251.488 66.6532 251.664 66.5252 251.808C66.3972 251.936 66.2212 252 65.9972 252C65.7892 252 65.6132 251.936 65.4692 251.808C65.3412 251.664 65.2772 251.488 65.2772 251.28V239.592C65.2772 239.368 65.3412 239.192 65.4692 239.064C65.6132 238.936 65.7892 238.872 65.9972 238.872C66.2212 238.872 66.3972 238.936 66.5252 239.064C66.6532 239.192 66.7172 239.368 66.7172 239.592V240.84C67.2612 240.168 67.9252 239.648 68.7092 239.28C69.4932 238.896 70.3492 238.704 71.2772 238.704ZM87.3536 250.536C87.5776 250.536 87.7536 250.608 87.8816 250.752C88.0256 250.88 88.0976 251.056 88.0976 251.28C88.0976 251.488 88.0256 251.664 87.8816 251.808C87.7536 251.936 87.5776 252 87.3536 252H86.8016C85.9216 252 85.1376 251.8 84.4496 251.4C83.7616 251 83.2256 250.456 82.8416 249.768C82.4576 249.064 82.2656 248.272 82.2656 247.392V240.648H80.3936C80.2016 240.648 80.0416 240.592 79.9136 240.48C79.8016 240.352 79.7456 240.192 79.7456 240C79.7456 239.808 79.8016 239.656 79.9136 239.544C80.0416 239.416 80.2016 239.352 80.3936 239.352H82.2656V235.44C82.2656 235.216 82.3296 235.04 82.4576 234.912C82.6016 234.768 82.7776 234.696 82.9856 234.696C83.2096 234.696 83.3856 234.768 83.5136 234.912C83.6576 235.04 83.7296 235.216 83.7296 235.44V239.352H86.8976C87.0896 239.352 87.2416 239.416 87.3536 239.544C87.4816 239.656 87.5456 239.808 87.5456 240C87.5456 240.192 87.4816 240.352 87.3536 240.48C87.2416 240.592 87.0896 240.648 86.8976 240.648H83.7296V247.392C83.7296 248.32 84.0176 249.08 84.5936 249.672C85.1696 250.248 85.9136 250.536 86.8256 250.536H87.3536ZM96.6733 238.728C97.8893 238.728 98.4973 238.992 98.4973 239.52C98.4973 239.6 98.4893 239.664 98.4733 239.712C98.4253 239.888 98.3453 240.016 98.2333 240.096C98.1373 240.16 98.0013 240.192 97.8253 240.192C97.6813 240.192 97.4893 240.176 97.2493 240.144C97.0253 240.112 96.8333 240.096 96.6733 240.096C95.8733 240.096 95.1613 240.264 94.5373 240.6C93.9133 240.936 93.4253 241.4 93.0733 241.992C92.7213 242.584 92.5453 243.248 92.5453 243.984V251.28C92.5453 251.488 92.4813 251.664 92.3533 251.808C92.2253 251.936 92.0493 252 91.8253 252C91.6173 252 91.4413 251.936 91.2973 251.808C91.1693 251.664 91.1053 251.488 91.1053 251.28V239.592C91.1053 239.368 91.1693 239.192 91.2973 239.064C91.4413 238.936 91.6173 238.872 91.8253 238.872C92.0493 238.872 92.2253 238.936 92.3533 239.064C92.4813 239.192 92.5453 239.368 92.5453 239.592V241.08C93.0093 240.344 93.6013 239.768 94.3213 239.352C95.0413 238.936 95.8253 238.728 96.6733 238.728ZM105.647 238.752C106.815 238.752 107.855 239.032 108.767 239.592C109.695 240.136 110.415 240.896 110.927 241.872C111.439 242.848 111.695 243.96 111.695 245.208C111.695 245.416 111.631 245.584 111.503 245.712C111.375 245.824 111.207 245.88 110.999 245.88H100.943C100.991 246.824 101.239 247.672 101.687 248.424C102.135 249.16 102.735 249.736 103.487 250.152C104.239 250.568 105.079 250.776 106.007 250.776C106.631 250.776 107.255 250.672 107.879 250.464C108.519 250.24 109.023 249.952 109.391 249.6C109.551 249.472 109.719 249.408 109.895 249.408C110.071 249.408 110.215 249.456 110.327 249.552C110.503 249.696 110.591 249.864 110.591 250.056C110.591 250.216 110.519 250.368 110.375 250.512C109.863 250.976 109.191 251.36 108.359 251.664C107.543 251.968 106.759 252.12 106.007 252.12C104.743 252.12 103.615 251.84 102.623 251.28C101.647 250.704 100.879 249.912 100.319 248.904C99.7591 247.88 99.4791 246.728 99.4791 245.448C99.4791 244.152 99.7351 243 100.247 241.992C100.775 240.968 101.503 240.176 102.431 239.616C103.375 239.04 104.447 238.752 105.647 238.752ZM105.647 240.096C104.399 240.096 103.343 240.512 102.479 241.344C101.631 242.176 101.127 243.272 100.967 244.632H110.303C110.191 243.272 109.711 242.176 108.863 241.344C108.015 240.512 106.943 240.096 105.647 240.096ZM126.319 252.144C125.391 252.144 124.487 251.984 123.607 251.664C122.727 251.328 121.999 250.824 121.423 250.152C121.311 250.024 121.255 249.88 121.255 249.72C121.255 249.496 121.359 249.312 121.567 249.168C121.663 249.088 121.799 249.048 121.975 249.048C122.199 249.048 122.383 249.136 122.527 249.312C123.327 250.288 124.615 250.776 126.391 250.776C127.655 250.776 128.583 250.552 129.175 250.104C129.783 249.656 130.087 249.08 130.087 248.376C130.087 247.112 128.863 246.304 126.415 245.952C124.863 245.728 123.687 245.304 122.887 244.68C122.103 244.056 121.711 243.304 121.711 242.424C121.711 241.256 122.135 240.352 122.983 239.712C123.847 239.056 124.967 238.728 126.343 238.728C128.359 238.728 129.887 239.448 130.927 240.888C131.023 241 131.071 241.136 131.071 241.296C131.071 241.52 130.943 241.704 130.687 241.848C130.527 241.912 130.407 241.944 130.327 241.944C130.087 241.944 129.887 241.84 129.727 241.632C128.911 240.592 127.767 240.072 126.295 240.072C125.319 240.072 124.543 240.288 123.967 240.72C123.391 241.136 123.103 241.656 123.103 242.28C123.103 242.92 123.375 243.432 123.919 243.816C124.479 244.2 125.407 244.488 126.703 244.68C128.399 244.92 129.615 245.376 130.351 246.048C131.103 246.704 131.479 247.504 131.479 248.448C131.479 249.184 131.239 249.832 130.759 250.392C130.295 250.952 129.671 251.384 128.887 251.688C128.103 251.992 127.247 252.144 126.319 252.144ZM145.835 238.872C146.059 238.872 146.235 238.936 146.363 239.064C146.491 239.192 146.555 239.368 146.555 239.592V251.28C146.555 251.488 146.491 251.664 146.363 251.808C146.235 251.936 146.059 252 145.835 252C145.627 252 145.451 251.936 145.307 251.808C145.179 251.664 145.115 251.488 145.115 251.28V250.032C144.571 250.704 143.907 251.232 143.123 251.616C142.339 251.984 141.483 252.168 140.555 252.168C139.387 252.168 138.339 251.928 137.411 251.448C136.499 250.968 135.779 250.272 135.251 249.36C134.739 248.432 134.483 247.328 134.483 246.048V239.592C134.483 239.384 134.547 239.216 134.675 239.088C134.819 238.944 134.995 238.872 135.203 238.872C135.411 238.872 135.579 238.944 135.707 239.088C135.851 239.216 135.923 239.384 135.923 239.592V246.048C135.923 247.568 136.347 248.728 137.195 249.528C138.059 250.328 139.179 250.728 140.555 250.728C141.403 250.728 142.171 250.568 142.859 250.248C143.563 249.912 144.115 249.456 144.515 248.88C144.915 248.288 145.115 247.64 145.115 246.936V239.592C145.115 239.368 145.179 239.192 145.307 239.064C145.451 238.936 145.627 238.872 145.835 238.872ZM156.871 238.728C158.119 238.728 159.255 239.024 160.279 239.616C161.303 240.192 162.103 240.992 162.679 242.016C163.271 243.04 163.567 244.184 163.567 245.448V251.28C163.567 251.488 163.503 251.664 163.375 251.808C163.247 251.936 163.071 252 162.847 252C162.639 252 162.463 251.936 162.319 251.808C162.191 251.664 162.127 251.488 162.127 251.28V249.408C161.599 250.256 160.871 250.928 159.943 251.424C159.031 251.904 158.007 252.144 156.871 252.144C155.607 252.144 154.463 251.856 153.439 251.28C152.415 250.688 151.607 249.88 151.015 248.856C150.439 247.832 150.151 246.696 150.151 245.448C150.151 244.184 150.439 243.04 151.015 242.016C151.607 240.992 152.415 240.192 153.439 239.616C154.463 239.024 155.607 238.728 156.871 238.728ZM156.871 250.8C157.863 250.8 158.759 250.568 159.559 250.104C160.359 249.64 160.983 249 161.431 248.184C161.895 247.368 162.127 246.456 162.127 245.448C162.127 244.44 161.895 243.528 161.431 242.712C160.983 241.896 160.359 241.256 159.559 240.792C158.759 240.312 157.863 240.072 156.871 240.072C155.879 240.072 154.983 240.312 154.183 240.792C153.383 241.256 152.751 241.896 152.287 242.712C151.823 243.528 151.591 244.44 151.591 245.448C151.591 246.456 151.823 247.368 152.287 248.184C152.751 249 153.383 249.64 154.183 250.104C154.983 250.568 155.879 250.8 156.871 250.8ZM178.655 252.144C177.727 252.144 176.823 251.984 175.943 251.664C175.063 251.328 174.335 250.824 173.759 250.152C173.647 250.024 173.591 249.88 173.591 249.72C173.591 249.496 173.695 249.312 173.903 249.168C173.999 249.088 174.135 249.048 174.311 249.048C174.535 249.048 174.719 249.136 174.863 249.312C175.663 250.288 176.951 250.776 178.727 250.776C179.991 250.776 180.919 250.552 181.511 250.104C182.119 249.656 182.423 249.08 182.423 248.376C182.423 247.112 181.199 246.304 178.751 245.952C177.199 245.728 176.023 245.304 175.223 244.68C174.439 244.056 174.047 243.304 174.047 242.424C174.047 241.256 174.471 240.352 175.319 239.712C176.183 239.056 177.303 238.728 178.679 238.728C180.695 238.728 182.223 239.448 183.263 240.888C183.359 241 183.407 241.136 183.407 241.296C183.407 241.52 183.279 241.704 183.023 241.848C182.863 241.912 182.743 241.944 182.663 241.944C182.423 241.944 182.223 241.84 182.063 241.632C181.247 240.592 180.103 240.072 178.631 240.072C177.655 240.072 176.879 240.288 176.303 240.72C175.727 241.136 175.439 241.656 175.439 242.28C175.439 242.92 175.711 243.432 176.255 243.816C176.815 244.2 177.743 244.488 179.039 244.68C180.735 244.92 181.951 245.376 182.687 246.048C183.439 246.704 183.815 247.504 183.815 248.448C183.815 249.184 183.575 249.832 183.095 250.392C182.631 250.952 182.007 251.384 181.223 251.688C180.439 251.992 179.583 252.144 178.655 252.144ZM193.058 238.728C194.306 238.728 195.442 239.024 196.466 239.616C197.49 240.192 198.29 240.992 198.866 242.016C199.458 243.04 199.754 244.184 199.754 245.448V251.28C199.754 251.488 199.69 251.664 199.562 251.808C199.434 251.936 199.258 252 199.034 252C198.826 252 198.65 251.936 198.506 251.808C198.378 251.664 198.314 251.488 198.314 251.28V249.408C197.786 250.256 197.058 250.928 196.13 251.424C195.218 251.904 194.194 252.144 193.058 252.144C191.794 252.144 190.65 251.856 189.626 251.28C188.602 250.688 187.794 249.88 187.202 248.856C186.626 247.832 186.338 246.696 186.338 245.448C186.338 244.184 186.626 243.04 187.202 242.016C187.794 240.992 188.602 240.192 189.626 239.616C190.65 239.024 191.794 238.728 193.058 238.728ZM193.058 250.8C194.05 250.8 194.946 250.568 195.746 250.104C196.546 249.64 197.17 249 197.618 248.184C198.082 247.368 198.314 246.456 198.314 245.448C198.314 244.44 198.082 243.528 197.618 242.712C197.17 241.896 196.546 241.256 195.746 240.792C194.946 240.312 194.05 240.072 193.058 240.072C192.066 240.072 191.17 240.312 190.37 240.792C189.57 241.256 188.938 241.896 188.474 242.712C188.01 243.528 187.778 244.44 187.778 245.448C187.778 246.456 188.01 247.368 188.474 248.184C188.938 249 189.57 249.64 190.37 250.104C191.17 250.568 192.066 250.8 193.058 250.8ZM214.46 238.872C214.684 238.872 214.86 238.936 214.988 239.064C215.116 239.192 215.18 239.368 215.18 239.592V251.28C215.18 251.488 215.116 251.664 214.988 251.808C214.86 251.936 214.684 252 214.46 252C214.252 252 214.076 251.936 213.932 251.808C213.804 251.664 213.74 251.488 213.74 251.28V250.032C213.196 250.704 212.532 251.232 211.748 251.616C210.964 251.984 210.108 252.168 209.18 252.168C208.012 252.168 206.964 251.928 206.036 251.448C205.124 250.968 204.404 250.272 203.876 249.36C203.364 248.432 203.108 247.328 203.108 246.048V239.592C203.108 239.384 203.172 239.216 203.3 239.088C203.444 238.944 203.62 238.872 203.828 238.872C204.036 238.872 204.204 238.944 204.332 239.088C204.476 239.216 204.548 239.384 204.548 239.592V246.048C204.548 247.568 204.972 248.728 205.82 249.528C206.684 250.328 207.804 250.728 209.18 250.728C210.028 250.728 210.796 250.568 211.484 250.248C212.188 249.912 212.74 249.456 213.14 248.88C213.54 248.288 213.74 247.64 213.74 246.936V239.592C213.74 239.368 213.804 239.192 213.932 239.064C214.076 238.936 214.252 238.872 214.46 238.872ZM208.916 236.928C208.708 236.928 208.532 236.856 208.388 236.712C208.244 236.568 208.172 236.392 208.172 236.184C208.172 236.008 208.228 235.848 208.34 235.704L211.292 232.752C211.436 232.608 211.612 232.536 211.82 232.536C212.028 232.536 212.204 232.608 212.348 232.752C212.492 232.896 212.564 233.072 212.564 233.28C212.564 233.472 212.492 233.64 212.348 233.784L209.396 236.736C209.268 236.864 209.108 236.928 208.916 236.928ZM231.472 233.256C231.696 233.256 231.872 233.32 232 233.448C232.128 233.576 232.192 233.752 232.192 233.976V245.52V245.568C232.176 246.8 231.872 247.92 231.28 248.928C230.688 249.936 229.88 250.728 228.856 251.304C227.848 251.864 226.728 252.144 225.496 252.144C224.232 252.144 223.088 251.856 222.064 251.28C221.04 250.688 220.232 249.88 219.64 248.856C219.064 247.832 218.776 246.688 218.776 245.424C218.776 244.176 219.064 243.04 219.64 242.016C220.232 240.992 221.04 240.192 222.064 239.616C223.088 239.024 224.232 238.728 225.496 238.728C226.632 238.728 227.656 238.976 228.568 239.472C229.496 239.952 230.224 240.616 230.752 241.464V233.976C230.752 233.752 230.816 233.576 230.944 233.448C231.088 233.32 231.264 233.256 231.472 233.256ZM225.496 250.8C226.488 250.8 227.384 250.568 228.184 250.104C228.984 249.624 229.608 248.976 230.056 248.16C230.52 247.344 230.752 246.432 230.752 245.424C230.752 244.416 230.52 243.504 230.056 242.688C229.608 241.872 228.984 241.232 228.184 240.768C227.384 240.304 226.488 240.072 225.496 240.072C224.504 240.072 223.608 240.304 222.808 240.768C222.008 241.232 221.376 241.872 220.912 242.688C220.448 243.504 220.216 244.416 220.216 245.424C220.216 246.432 220.448 247.344 220.912 248.16C221.376 248.976 222.008 249.624 222.808 250.104C223.608 250.568 224.504 250.8 225.496 250.8ZM241.96 238.752C243.128 238.752 244.168 239.032 245.08 239.592C246.008 240.136 246.728 240.896 247.24 241.872C247.752 242.848 248.008 243.96 248.008 245.208C248.008 245.416 247.944 245.584 247.816 245.712C247.688 245.824 247.52 245.88 247.312 245.88H237.256C237.304 246.824 237.552 247.672 238 248.424C238.448 249.16 239.048 249.736 239.8 250.152C240.552 250.568 241.392 250.776 242.32 250.776C242.944 250.776 243.568 250.672 244.192 250.464C244.832 250.24 245.336 249.952 245.704 249.6C245.864 249.472 246.032 249.408 246.208 249.408C246.384 249.408 246.528 249.456 246.64 249.552C246.816 249.696 246.904 249.864 246.904 250.056C246.904 250.216 246.832 250.368 246.688 250.512C246.176 250.976 245.504 251.36 244.672 251.664C243.856 251.968 243.072 252.12 242.32 252.12C241.056 252.12 239.928 251.84 238.936 251.28C237.96 250.704 237.192 249.912 236.632 248.904C236.072 247.88 235.792 246.728 235.792 245.448C235.792 244.152 236.048 243 236.56 241.992C237.088 240.968 237.816 240.176 238.744 239.616C239.688 239.04 240.76 238.752 241.96 238.752ZM241.96 240.096C240.712 240.096 239.656 240.512 238.792 241.344C237.944 242.176 237.44 243.272 237.28 244.632H246.616C246.504 243.272 246.024 242.176 245.176 241.344C244.328 240.512 243.256 240.096 241.96 240.096Z" fill="black"/>
<defs>
<filter id="filter0_d" x="19" y="0" width="212.517" height="107.189" filterUnits="userSpaceOnUse" color-interpolation-filters="sRGB">
<feFlood flood-opacity="0" result="BackgroundImageFix"/>
<feColorMatrix in="SourceAlpha" type="matrix" values="0 0 0 0 0 0 0 0 0 0 0 0 0 0 0 0 0 0 127 0"/>
<feOffset dy="4"/>
<feGaussianBlur stdDeviation="2"/>
<feColorMatrix type="matrix" values="0 0 0 0 0 0 0 0 0 0 0 0 0 0 0 0 0 0 0.25 0"/>
<feBlend mode="normal" in2="BackgroundImageFix" result="effect1_dropShadow"/>
<feBlend mode="normal" in="SourceGraphic" in2="effect1_dropShadow" result="shape"/>
</filter>
<filter id="filter1_d" x="59" y="50" width="132" height="132" filterUnits="userSpaceOnUse" color-interpolation-filters="sRGB">
<feFlood flood-opacity="0" result="BackgroundImageFix"/>
<feColorMatrix in="SourceAlpha" type="matrix" values="0 0 0 0 0 0 0 0 0 0 0 0 0 0 0 0 0 0 127 0"/>
<feOffset dy="4"/>
<feGaussianBlur stdDeviation="2"/>
<feColorMatrix type="matrix" values="0 0 0 0 0 0 0 0 0 0 0 0 0 0 0 0 0 0 0.25 0"/>
<feBlend mode="normal" in2="BackgroundImageFix" result="effect1_dropShadow"/>
<feBlend mode="normal" in="SourceGraphic" in2="effect1_dropShadow" result="shape"/>
</filter>
</defs>
</svg>
